<svg width="138" height="36" viewBox="0 0 138 36" fill="none" xmlns="http://www.w3.org/2000/svg">
<path opacity="0.4" d="M25.5 5.00995H10.5L3 17.9999L10.5 30.9899H25.5L33 17.9999L25.5 5.00995Z" fill="url(#paint0_linear_0_1722)"/>
<path d="M16.3049 21H10.5449L7.6499 25.995L10.5449 30.99H16.3049L19.1999 25.995L16.3049 21Z" fill="url(#paint1_linear_0_1722)"/>
<path opacity="0.6" d="M21.5101 12H10.5451L5.07007 21.495L10.5451 30.99H21.5101L27.0001 21.495L21.5101 12Z" fill="url(#paint2_linear_0_1722)"/>
<path d="M42.5526 25.6902C42.3758 25.6902 42.2358 25.6312 42.1326 25.5131C42.0442 25.3951 42 25.2328 42 25.0263C42 24.7165 42.1105 24.4878 42.3316 24.3402C42.5526 24.178 42.8474 24.0968 43.2158 24.0968H43.5916L48.7202 10.3098H51.7266L56.8552 24.0968L57.6952 24.3845C57.99 24.4878 58.2036 24.6058 58.3363 24.7386C58.4689 24.8566 58.5352 25.0115 58.5352 25.2033C58.5352 25.5279 58.4247 25.6902 58.2036 25.6902H52.6772C52.3235 25.6902 52.1466 25.4689 52.1466 25.0263C52.1466 24.7165 52.2572 24.4878 52.4782 24.3402C52.6993 24.178 52.994 24.0968 53.3624 24.0968H54.0698L52.9424 21.065H46.7749L45.6696 24.0968L46.8854 24.473C47.2244 24.5763 47.4602 24.687 47.5928 24.805C47.7254 24.923 47.7918 25.0779 47.7918 25.2697C47.7918 25.55 47.6812 25.6902 47.4602 25.6902H42.5526ZM52.2793 19.2946L49.8697 12.6335L47.416 19.2946H52.2793Z" fill="url(#paint3_linear_0_1722)"/>
<path d="M60.3479 25.6902C60.1711 25.6902 60.0311 25.6312 59.9279 25.5131C59.8395 25.3951 59.7953 25.2328 59.7953 25.0263C59.7953 24.7165 59.9058 24.4878 60.1269 24.3402C60.3479 24.178 60.65 24.0968 61.0332 24.0968H61.409V11.9032H60.3479C60.1711 11.9032 60.0311 11.8442 59.9279 11.7261C59.8395 11.6081 59.7953 11.4458 59.7953 11.2393C59.7953 10.9295 59.9058 10.7008 60.1269 10.5533C60.3479 10.391 60.6427 10.3098 61.0111 10.3098H65.5649C65.7123 10.3098 65.8081 10.3467 65.8523 10.4205C65.9112 10.4795 65.9407 10.568 65.9407 10.686C65.9407 10.8778 65.8744 11.0401 65.7418 11.1729C65.6091 11.3057 65.3954 11.4311 65.1007 11.5491L64.1722 11.9032V24.0968L65.1007 24.4509C65.4102 24.5689 65.6239 24.6943 65.7418 24.8271C65.8744 24.9599 65.9407 25.1222 65.9407 25.314C65.9407 25.432 65.9112 25.5279 65.8523 25.6017C65.8081 25.6607 65.7123 25.6902 65.5649 25.6902H60.3479Z" fill="url(#paint4_linear_0_1722)"/>
<path d="M74.9603 25.6902C74.7834 25.6902 74.6434 25.6312 74.5403 25.5131C74.4518 25.3951 74.4076 25.2328 74.4076 25.0263C74.4076 24.7165 74.5182 24.4878 74.7392 24.3402C74.9603 24.178 75.2624 24.0968 75.6456 24.0968H76.0214V12.036L75.5793 11.9253C75.1371 11.822 74.8276 11.6893 74.6508 11.527C74.4887 11.3647 74.4076 11.1434 74.4076 10.8631C74.4076 10.6713 74.4445 10.5311 74.5182 10.4426C74.6066 10.3541 74.7097 10.3098 74.8276 10.3098H78.5635L84.9964 19.5823C85.468 20.2757 85.9174 21.1757 86.3448 22.2822V11.9032H85.0848C84.9079 11.9032 84.7679 11.8442 84.6648 11.7261C84.5764 11.6081 84.5322 11.4458 84.5322 11.2393C84.5322 10.9295 84.6427 10.7008 84.8637 10.5533C85.0848 10.391 85.3795 10.3098 85.748 10.3098H89.7934C90.0292 10.3098 90.1471 10.4352 90.1471 10.686C90.1471 10.9811 89.8302 11.2688 89.1965 11.5491L88.4007 11.9032V25.6902H85.8585L79.1825 16.0415C78.9615 15.7169 78.7699 15.3923 78.6078 15.0678C78.4456 14.7284 78.2688 14.2858 78.0772 13.74V24.0968L79.1825 24.473C79.492 24.5763 79.7057 24.6943 79.8236 24.8271C79.9562 24.9451 80.0225 25.1074 80.0225 25.314C80.0225 25.5648 79.9046 25.6902 79.6688 25.6902H74.9603Z" fill="#272D36"/>
<path d="M99.1656 26C97.7361 26 96.4613 25.7123 95.3413 25.1369C94.236 24.5616 93.3591 23.6763 92.7107 22.4813C92.0769 21.2863 91.7601 19.7962 91.7601 18.0111C91.7601 16.2407 92.0769 14.758 92.7107 13.5629C93.3591 12.3532 94.236 11.4606 95.3413 10.8852C96.4613 10.2951 97.7361 10 99.1656 10C100.595 10 101.863 10.2951 102.968 10.8852C104.088 11.4606 104.965 12.3532 105.598 13.5629C106.247 14.758 106.571 16.2407 106.571 18.0111C106.571 19.7962 106.247 21.2863 105.598 22.4813C104.965 23.6763 104.088 24.5616 102.968 25.1369C101.863 25.7123 100.595 26 99.1656 26ZM99.1656 24.2296C100.669 24.2296 101.811 23.6985 102.592 22.6362C103.373 21.5592 103.764 20.0175 103.764 18.0111C103.764 16.0046 103.373 14.4629 102.592 13.3859C101.811 12.3089 100.669 11.7704 99.1656 11.7704C97.6771 11.7704 96.535 12.3089 95.7392 13.3859C94.9581 14.4629 94.5675 16.0046 94.5675 18.0111C94.5675 20.0175 94.9581 21.5592 95.7392 22.6362C96.535 23.6985 97.6771 24.2296 99.1656 24.2296Z" fill="#272D36"/>
<path d="M108.724 11.9032H107.663C107.486 11.9032 107.346 11.8442 107.243 11.7261C107.155 11.6081 107.11 11.4458 107.11 11.2393C107.11 10.9295 107.221 10.7008 107.442 10.5533C107.663 10.391 107.958 10.3098 108.326 10.3098H113.344C113.58 10.3098 113.698 10.4352 113.698 10.686C113.698 10.9073 113.617 11.0917 113.455 11.2393C113.293 11.3868 113.042 11.5048 112.703 11.5934L111.664 11.9032L115.334 22.6584C115.422 22.9239 115.489 23.1969 115.533 23.4772C115.592 23.7575 115.629 23.9345 115.643 24.0083H115.754C115.754 23.9345 115.776 23.7575 115.82 23.4772C115.879 23.1969 115.96 22.9239 116.063 22.6584L119.954 11.9032H118.628C118.274 11.9032 118.097 11.6819 118.097 11.2393C118.097 10.9295 118.208 10.7008 118.429 10.5533C118.65 10.391 118.944 10.3098 119.313 10.3098H123.557C123.808 10.3098 123.933 10.4352 123.933 10.686C123.933 11.0254 123.682 11.2909 123.181 11.4827L122.076 11.9032L116.992 25.6902H113.742L108.724 11.9032Z" fill="#272D36"/>
<path d="M122.017 25.6902C121.841 25.6902 121.701 25.6312 121.597 25.5131C121.509 25.3951 121.465 25.2328 121.465 25.0263C121.465 24.7165 121.575 24.4878 121.796 24.3402C122.017 24.178 122.312 24.0968 122.681 24.0968H123.056L128.185 10.3098H131.191L136.32 24.0968L137.16 24.3845C137.455 24.4878 137.668 24.6058 137.801 24.7386C137.934 24.8566 138 25.0115 138 25.2033C138 25.5279 137.889 25.6902 137.668 25.6902H132.142C131.788 25.6902 131.611 25.4689 131.611 25.0263C131.611 24.7165 131.722 24.4878 131.943 24.3402C132.164 24.178 132.459 24.0968 132.827 24.0968H133.535L132.407 21.065H126.24L125.134 24.0968L126.35 24.473C126.689 24.5763 126.925 24.687 127.058 24.805C127.19 24.923 127.257 25.0779 127.257 25.2697C127.257 25.55 127.146 25.6902 126.925 25.6902H122.017ZM131.744 19.2946L129.334 12.6335L126.881 19.2946H131.744Z" fill="#272D36"/>
<defs>
<linearGradient id="paint0_linear_0_1722" x1="3" y1="5.00995" x2="35.9386" y2="9.51776" gradientUnits="userSpaceOnUse">
<stop stop-color="#7D54F3"/>
<stop offset="1" stop-color="#CEBCFF"/>
</linearGradient>
<linearGradient id="paint1_linear_0_1722" x1="7.6499" y1="21" x2="20.3307" y2="22.7376" gradientUnits="userSpaceOnUse">
<stop stop-color="#7D54F3"/>
<stop offset="1" stop-color="#CEBCFF"/>
</linearGradient>
<linearGradient id="paint2_linear_0_1722" x1="5.07007" y1="12" x2="29.1481" y2="15.2954" gradientUnits="userSpaceOnUse">
<stop stop-color="#7D54F3"/>
<stop offset="1" stop-color="#CEBCFF"/>
</linearGradient>
<linearGradient id="paint3_linear_0_1722" x1="42" y1="10" x2="113.316" y2="60.7127" gradientUnits="userSpaceOnUse">
<stop stop-color="#7D54F3"/>
<stop offset="1" stop-color="#CEBCFF"/>
</linearGradient>
<linearGradient id="paint4_linear_0_1722" x1="42" y1="10" x2="113.316" y2="60.7127" gradientUnits="userSpaceOnUse">
<stop stop-color="#7D54F3"/>
<stop offset="1" stop-color="#CEBCFF"/>
</linearGradient>
</defs>
</svg>
